HIERARCHY
ROOT hip
{
  OFFSET 0 0 0
  CHANNELS 6 Xposition Yposition Zposition Zrotation Yrotation Xrotation
  JOINT abdomen
  {
    OFFSET 0 20.6881 -0.73152
    CHANNELS 3 Zrotation Xrotation Yrotation
    JOINT chest
    {
      OFFSET 0 11.7043 -0.48768
      CHANNELS 3 Zrotation Xrotation Yrotation
      JOINT neck
      {
        OFFSET 0 22.1894 -2.19456
        CHANNELS 3 Zrotation Xrotation Yrotation
        JOINT head
        {
          OFFSET -0.24384 7.07133 1.2192
          CHANNELS 3 Zrotation Xrotation Yrotation
          JOINT leftEye
          {
            OFFSET 4.14528 8.04674 8.04672
            CHANNELS 3 Zrotation Xrotation Yrotation
            End Site
            {
              OFFSET 1 0 0
            }
          }
          JOINT rightEye
          {
            OFFSET -3.6576 8.04674 8.04672
            CHANNELS 3 Zrotation Xrotation Yrotation
            End Site
            {
              OFFSET 1 0 0
            }
          }
        }
      }
      JOINT rCollar
      {
        OFFSET -2.68224 19.2634 -4.8768
        CHANNELS 3 Zrotation Xrotation Yrotation
        JOINT rShldr
        {
          OFFSET -8.77824 -1.95073 1.46304
          CHANNELS 3 Zrotation Xrotation Yrotation
          JOINT rForeArm
          {
            OFFSET -28.1742 -1.7115 0.48768
            CHANNELS 3 Zrotation Xrotation Yrotation
            JOINT rHand
            {
              OFFSET -22.5879 0.773209 7.07136
              CHANNELS 3 Zrotation Xrotation Yrotation
              JOINT rThumb1
              {
                OFFSET -1.2192 -0.487915 3.41376
                CHANNELS 3 Zrotation Xrotation Yrotation
                JOINT rThumb2
                {
                  OFFSET -3.37035 -0.52449 3.41376
                  CHANNELS 3 Zrotation Xrotation Yrotation
                  End Site
                  {
                    OFFSET -1.78271 -1.18214 1.43049
                  }
                }
              }
              JOINT rIndex1
              {
                OFFSET -7.75947 0.938293 5.60832
                CHANNELS 3 Zrotation Xrotation Yrotation
                JOINT rIndex2
                {
                  OFFSET -2.54057 -0.884171 1.56538
                  CHANNELS 3 Zrotation Xrotation Yrotation
                  End Site
                  {
                    OFFSET -1.62519 -0.234802 1.16502
                  }
                }
              }
              JOINT rMid1
              {
                OFFSET -8.24714 1.18213 3.41376
                CHANNELS 3 Zrotation Xrotation Yrotation
                JOINT rMid2
                {
                  OFFSET -3.10165 -0.590103 1.0647
                  CHANNELS 3 Zrotation Xrotation Yrotation
                  End Site
                  {
                    OFFSET -2.48547 -0.328903 0.83742
                  }
                }
              }
              JOINT rRing1
              {
                OFFSET -8.82822 0.546677 1.51678
                CHANNELS 3 Zrotation Xrotation Yrotation
                JOINT rRing2
                {
                  OFFSET -2.60934 -0.819778 -0.0198488
                  CHANNELS 3 Zrotation Xrotation Yrotation
                  End Site
                  {
                    OFFSET -2.33842 -0.294052 0.168128
                  }
                }
              }
              JOINT rPinky1
              {
                OFFSET -8.27202 -0.0477905 -0.4584
                CHANNELS 3 Zrotation Xrotation Yrotation
                JOINT rPinky2
                {
                  OFFSET -1.82734 -0.647385 -0.700984
                  CHANNELS 3 Zrotation Xrotation Yrotation
                  End Site
                  {
                    OFFSET -1.69225 -0.51767 -0.607171
                  }
                }
              }
            }
          }
        }
      }
      JOINT lCollar
      {
        OFFSET 2.68224 19.2634 -4.8768
        CHANNELS 3 Zrotation Xrotation Yrotation
        JOINT lShldr
        {
          OFFSET 8.77824 -1.95073 1.46304
          CHANNELS 3 Zrotation Xrotation Yrotation
          JOINT lForeArm
          {
            OFFSET 28.1742 -1.7115 0.48768
            CHANNELS 3 Zrotation Xrotation Yrotation
            JOINT lHand
            {
              OFFSET 22.5879 0.773209 7.07136
              CHANNELS 3 Zrotation Xrotation Yrotation
              JOINT lThumb1
              {
                OFFSET 1.2192 -0.487915 3.41376
                CHANNELS 3 Zrotation Xrotation Yrotation
                JOINT lThumb2
                {
                  OFFSET 3.37035 -0.52449 3.41376
                  CHANNELS 3 Zrotation Xrotation Yrotation
                  End Site
                  {
                    OFFSET 1.78271 -1.18214 1.43049
                  }
                }
              }
              JOINT lIndex1
              {
                OFFSET 7.75947 0.938293 5.60832
                CHANNELS 3 Zrotation Xrotation Yrotation
                JOINT lIndex2
                {
                  OFFSET 2.54057 -0.884171 1.56538
                  CHANNELS 3 Zrotation Xrotation Yrotation
                  End Site
                  {
                    OFFSET 1.62519 -0.234802 1.16502
                  }
                }
              }
              JOINT lMid1
              {
                OFFSET 8.24714 1.18213 3.41376
                CHANNELS 3 Zrotation Xrotation Yrotation
                JOINT lMid2
                {
                  OFFSET 3.10165 -0.590103 1.0647
                  CHANNELS 3 Zrotation Xrotation Yrotation
                  End Site
                  {
                    OFFSET 2.48547 -0.328903 0.83742
                  }
                }
              }
              JOINT lRing1
              {
                OFFSET 8.82822 0.546677 1.51678
                CHANNELS 3 Zrotation Xrotation Yrotation
                JOINT lRing2
                {
                  OFFSET 2.60934 -0.819778 -0.0198488
                  CHANNELS 3 Zrotation Xrotation Yrotation
                  End Site
                  {
                    OFFSET 2.33842 -0.294052 0.168128
                  }
                }
              }
              JOINT lPinky1
              {
                OFFSET 8.27202 -0.0477905 -0.4584
                CHANNELS 3 Zrotation Xrotation Yrotation
                JOINT lPinky2
                {
                  OFFSET 1.82734 -0.647385 -0.700984
                  CHANNELS 3 Zrotation Xrotation Yrotation
                  End Site
                  {
                    OFFSET 1.69225 -0.51767 -0.607171
                  }
                }
              }
            }
          }
        }
      }
    }
  }
  JOINT rButtock
  {
    OFFSET -8.77824 4.35084 1.2192
    CHANNELS 3 Zrotation Xrotation Yrotation
    JOINT rThigh
    {
      OFFSET 0 -1.70687 -2.19456
      CHANNELS 3 Zrotation Xrotation Yrotation
      JOINT rShin
      {
        OFFSET 0 -36.8199 0.73152
        CHANNELS 3 Zrotation Xrotation Yrotation
        JOINT rFoot
        {
          OFFSET 0.73152 -45.1104 -5.12064
          CHANNELS 3 Zrotation Xrotation Yrotation
          End Site
          {
            OFFSET -1.1221 -3.69964 12.103
          }
        }
      }
    }
  }
  JOINT lButtock
  {
    OFFSET 8.77824 4.35084 1.2192
    CHANNELS 3 Zrotation Xrotation Yrotation
    JOINT lThigh
    {
      OFFSET 0 -1.70687 -2.19456
      CHANNELS 3 Zrotation Xrotation Yrotation
      JOINT lShin
      {
        OFFSET 0 -36.8199 0.73152
        CHANNELS 3 Zrotation Xrotation Yrotation
        JOINT lFoot
        {
          OFFSET -0.73152 -45.1104 -5.12064
          CHANNELS 3 Zrotation Xrotation Yrotation
          End Site
          {
            OFFSET 1.1221 -3.69964 12.103
          }
        }
      }
    }
  }
}
MOTION
Frames:	4
Frame Time:	0.03333
-1.1742097300069207 39.243869574494596 7.697779488542487 0.15530169010162354 16.720874786376953 6.11903190612793 -8.580815315246582 8.055953025817871 -5.609614372253418 5.5880608558654785 -7.174318313598633 -1.5295170545578003 -10.084121704101562 20.601682662963867 -16.81997299194336 17.672834396362305 -16.795825958251953 -30.72391128540039 -0.03640298545360565 0.02674603834748268 -0.1503085047006607 -0.015058334916830063 -0.2844886779785156 0.0432903952896595 0.19711719453334808 0.04563451558351517 0.09878881275653839 66.74215698242188 37.91359329223633 -2.3696978092193604 -16.239286422729492 -9.215291976928711 30.54351234436035 0.2897934317588806 3.0245423316955566 0.6267666220664978 0.19145791232585907 -0.08483490347862244 0.15722517669200897 -0.09029184281826019 -0.08507432043552399 -0.03304848447442055 -0.23848403990268707 -0.12255851924419403 -0.03768312558531761 7.564285755157471 5.296506404876709 0.21881531178951263 0.31496530771255493 0.024630455300211906 -0.12556329369544983 2.9775521755218506 0.7996940612792969 0.3090546131134033 0.15794597566127777 -0.08276916295289993 -0.14564712345600128 10.249678611755371 1.0334489345550537 -0.08544784039258957 0.08259269595146179 -0.025524858385324478 0.05628737062215805 2.143234968185425 -0.7257189154624939 -0.08111727982759476 -0.17025764286518097 0.09181971848011017 0.15262320637702942 -75.56036376953125 39.51152801513672 1.2738797664642334 23.893468856811523 -18.917478561401367 -49.04387283325195 0.2435307502746582 -5.181918144226074 0.850307285785675 0.053668662905693054 -0.0782708004117012 0.033371202647686005 -0.08864542841911316 0.07374820858240128 -0.015041611157357693 0.11466711759567261 0.1166929081082344 0.07040553539991379 -7.7955498695373535 5.677102565765381 -0.4291585683822632 0.09545250982046127 0.12749098241329193 -0.04991960525512695 -2.8613758087158203 0.9791445136070251 -0.33503562211990356 0.05801146849989891 0.18728896975517273 -0.05644875392317772 -10.314434051513672 0.7150388360023499 -0.05221177265048027 -0.09858059883117676 0.1393614113330841 -0.19247381389141083 -2.239799737930298 -0.7004588842391968 0.15207715332508087 -0.08449680358171463 -0.03715475648641586 -0.19628991186618805 -34.452388763427734 -61.56533432006836 -32.40452575683594 -1.8855289220809937 70.4039306640625 2.7610111236572266 2.222923517227173 -8.220390319824219 12.910264015197754 0.16261456906795502 0.020563898608088493 -0.027007099241018295 6.951104640960693 7.167266368865967 1.0382062196731567 -0.07757408171892166 35.776615142822266 -2.1281306743621826 21.24527359008789 -20.071697235107422 39.17789077758789
-1.1809177228238137 39.21208187409735 7.593144952501219 0.17693261802196503 16.39488983154297 6.278598308563232 -8.613099098205566 8.18430233001709 -6.166985988616943 5.783755779266357 -7.193640232086182 -1.6616132259368896 -10.17364501953125 20.973690032958984 -17.09518051147461 17.900005340576172 -17.278846740722656 -31.231454849243164 -0.03370170667767525 0.04779280349612236 -0.1499287337064743 -0.00858005229383707 -0.26780810952186584 0.03956979885697365 0.1787220984697342 0.041724517941474915 0.10161790996789932 66.84518432617188 38.17698669433594 -2.267348051071167 -16.057302474975586 -9.080747604370117 30.191858291625977 0.27892547845840454 2.974479913711548 0.6202003359794617 0.18464061617851257 -0.0766882672905922 0.1688547432422638 -0.09753024578094482 -0.09651375561952591 -0.031510431319475174 -0.22543254494667053 -0.12130984663963318 -0.04715360701084137 7.567131996154785 5.306161880493164 0.21541529893875122 0.30541691184043884 0.03158297389745712 -0.11234590411186218 2.996910572052002 0.7971752882003784 0.299165815114975 0.13555942475795746 -0.07628235965967178 -0.15172648429870605 10.259374618530273 1.0462977886199951 -0.09675536304712296 0.055725764483213425 -0.026029035449028015 0.06404715031385422 2.1239519119262695 -0.7352893352508545 -0.0730559453368187 -0.16682933270931244 0.08941785991191864 0.1634478121995926 -76.08777618408203 38.228187561035156 2.0325257778167725 23.307300567626953 -17.779943466186523 -47.2837028503418 0.2415342926979065 -3.5683250427246094 0.6114252209663391 0.05858597159385681 -0.06357207894325256 0.021591443568468094 -0.08011382073163986 0.06760743260383606 -0.019773537293076515 0.12790140509605408 0.12371623516082764 0.07320768386125565 -7.79689359664917 5.672431945800781 -0.44423267245292664 0.09472232311964035 0.13013194501399994 -0.06438060849905014 -2.852797269821167 0.988304078578949 -0.32257047295570374 0.0601118840277195 0.16793544590473175 -0.05387357249855995 -10.317418098449707 0.7295926809310913 -0.05557669699192047 -0.08785118907690048 0.1411438137292862 -0.20401401817798615 -2.2445266246795654 -0.7161946892738342 0.15628260374069214 -0.08548681437969208 -0.02742210403084755 -0.21772709488868713 -34.21358871459961 -61.8275260925293 -32.01174545288086 -1.9395055770874023 70.37977600097656 2.8264431953430176 2.148582696914673 -8.23504638671875 12.581753730773926 0.17407961189746857 0.0371762216091156 -0.010966325178742409 6.836511135101318 7.06088924407959 1.0847119092941284 -0.08844225108623505 35.80887985229492 -2.1069936752319336 21.303783416748047 -19.964670181274414 39.225284576416016
-1.1906806244687007 39.1604593043504 7.506043512059374 0.25331753492355347 16.10556411743164 6.367933750152588 -8.849970817565918 8.18470573425293 -6.828492164611816 6.096500873565674 -7.213259696960449 -1.8163777589797974 -10.34445571899414 21.46154022216797 -17.645170211791992 18.29851531982422 -17.602333068847656 -32.18472671508789 -0.034942902624607086 0.07988989353179932 -0.15758557617664337 0.0028498033061623573 -0.24463535845279694 0.04019072651863098 0.14563113451004028 0.04404488205909729 0.1019042357802391 67.13301849365234 38.35054016113281 -2.4280688762664795 -15.890043258666992 -8.907023429870605 29.846555709838867 0.26881471276283264 2.846181869506836 0.5922167301177979 0.18708071112632751 -0.06624452024698257 0.18867634236812592 -0.10588135570287704 -0.10723215341567993 -0.02282089553773403 -0.20057432353496552 -0.12182614207267761 -0.04546467214822769 7.573529243469238 5.313290119171143 0.2100820094347 0.29690003395080566 0.036805588752031326 -0.0944036915898323 3.0208303928375244 0.8112587928771973 0.28992804884910583 0.10884705930948257 -0.06451902538537979 -0.14956563711166382 10.27564525604248 1.051579236984253 -0.10561142861843109 0.03346651419997215 -0.03579114377498627 0.07090596109628677 2.1235783100128174 -0.7517452239990234 -0.06886371970176697 -0.16087062656879425 0.08741658180952072 0.1671524941921234 -76.69641876220703 36.705116271972656 3.1028099060058594 22.63837242126465 -16.61541748046875 -45.385093688964844 0.24422535300254822 -1.5559943914413452 0.30175286531448364 0.052783045917749405 -0.06180024892091751 0.001995130442082882 -0.07887271046638489 0.053144801408052444 -0.028825951740145683 0.14228323101997375 0.13384759426116943 0.07820320129394531 -7.804690361022949 5.650137901306152 -0.44521820545196533 0.09831779450178146 0.12157734483480453 -0.0797087699174881 -2.842489242553711 0.9972146153450012 -0.3022835850715637 0.06602932512760162 0.14375150203704834 -0.06128943711519241 -10.310681343078613 0.753921389579773 -0.05314934253692627 -0.07036735862493515 0.1384185403585434 -0.21005456149578094 -2.2409496307373047 -0.7323856353759766 0.16246724128723145 -0.10621866583824158 -0.018466506153345108 -0.24059459567070007 -34.17615509033203 -62.1173095703125 -31.76328468322754 -1.9965802431106567 70.40970611572266 2.8807806968688965 2.1627907752990723 -8.182002067565918 12.584125518798828 0.20014885067939758 0.05571509525179863 0.010083884000778198 6.6275458335876465 7.329871654510498 1.1711188554763794 -0.12054390460252762 35.57228088378906 -2.096813201904297 21.512868881225586 -20.0331974029541 39.5277214050293
-1.2096990727691896 39.1110770366512 7.449141859754445 0.36723586916923523 15.817750930786133 6.424095630645752 -9.180621147155762 8.137742042541504 -7.504436016082764 6.450875759124756 -7.233994007110596 -1.9840949773788452 -10.507827758789062 21.979047775268555 -18.227994918823242 18.73542022705078 -17.853200912475586 -33.20924377441406 -0.0518263541162014 0.1160118505358696 -0.15984906256198883 0.010853366926312447 -0.21624960005283356 0.041772209107875824 0.10921191424131393 0.0359816811978817 0.09844522178173065 67.44212341308594 38.42761993408203 -2.6823434829711914 -15.778912544250488 -8.810111999511719 29.627893447875977 0.255825400352478 2.7806813716888428 0.5738579630851746 0.1818895787000656 -0.06282158941030502 0.21075557172298431 -0.11958663910627365 -0.11734975129365921 -0.00956936739385128 -0.17370611429214478 -0.11994054168462753 -0.056073494255542755 7.592819690704346 5.319561958312988 0.19267605245113373 0.28954994678497314 0.042771439999341965 -0.07934898138046265 3.039637327194214 0.8262773156166077 0.2803102135658264 0.08544503152370453 -0.04967199265956879 -0.14704853296279907 10.290760040283203 1.0550745725631714 -0.11083240807056427 0.009634438902139664 -0.05048124119639397 0.07689247280359268 2.1224372386932373 -0.7643702030181885 -0.06921830028295517 -0.15344898402690887 0.09271065890789032 0.1698881834745407 -77.2369384765625 35.197509765625 4.0671515464782715 21.971805572509766 -15.614204406738281 -43.63776779174805 0.25325310230255127 0.24581828713417053 0.03892131894826889 0.03764060512185097 -0.06103892996907234 -0.016543086618185043 -0.08568792045116425 0.04179026558995247 -0.04106782376766205 0.15038517117500305 0.13602322340011597 0.0750976949930191 -7.809688091278076 5.625443935394287 -0.44592657685279846 0.10535330325365067 0.11130776256322861 -0.08683331310749054 -2.829582452774048 1.0089185237884521 -0.28173550963401794 0.06884663552045822 0.11859793215990067 -0.06263905018568039 -10.309820175170898 0.7729060053825378 -0.04824870079755783 -0.05543443560600281 0.13584260642528534 -0.21373744308948517 -2.233712673187256 -0.7455915808677673 0.16591200232505798 -0.12506766617298126 -0.011203565634787083 -0.2511393427848816 -34.355220794677734 -62.34535598754883 -31.761627197265625 -2.070162534713745 70.4688491821289 2.9475977420806885 2.2020504474639893 -8.078371047973633 12.73604965209961 0.2269742488861084 0.06298255920410156 0.029948139563202858 6.388890266418457 7.724719047546387 1.3355070352554321 -0.13857463002204895 35.26355743408203 -2.0963757038116455 21.751863479614258 -20.16263771057129 39.911685943603516
